{"title":"The.Hunger.Games.Mockingjay.Part.2.2015.3D.Half-SBS.DD.5.1-PHX","uid":14328499,"size":13495068807,"categoryP":"video","categoryS":"3d","magnet":"?xt=urn:btih:276d14bd795220bd319286218b673aca02c64c86&amp;dn=The.Hunger.Games.Mockingjay.Part.2.2015.3D.Half-SBS.DD.5.1-PHX&amp;tr=udp%3A%2F%2Ftracker.leechers-paradise.org%3A6969&amp;tr=udp%3A%2F%2Fzer0day.ch%3A1337&amp;tr=udp%3A%2F%2Fopen.demonii.com%3A1337&amp;tr=udp%3A%2F%2Ftracker.coppersurfer.tk%3A6969&amp;tr=udp%3A%2F%2Fexodus.desync.com%3A6969","seeders":14,"leechers":3,"uploader":"angel_799","files":2,"time":1460673327,"description":"[torrentsgroup]\r\n\r\n\r\nThe Hunger Games: Mockingjay - Part 2 (2015)\r\n\r\nCountry: \r\n\r\nYear: 2015\r\n\r\nGenre: Adventure, Sci-Fi\r\n\r\nDirector: Francis Lawrence\r\n\r\nRuntime: 137 min\r\n\r\nIMDB: http://www.imdb.com/title/tt1951266/\r\n\r\nCast: Jennifer Lawrence, Josh Hutcherson, Liam Hemsworth, Woody Harrelson, Donald Sutherland, Philip Seymour Hoffman, Julianne Moore, Willow Shields, Sam Claflin, Elizabeth Banks, Mahershala Ali, Jena Malone, Jeffrey Wright, Paula Malcomson, Stanley Tucci and others\r\n\r\n\r\nPlot:.\r\n\r\nAs the war of Panem escalates to the destruction of other districts by the Capitol, Katniss Everdeen, the reluctant leader of the rebellion, must bring together an army against President Snow, while all she holds dear hangs in the balance.\r\n\r\nGeneral\r\nUnique ID                      : 209659004657869627179678209835651301629 (0x9DBADB033BFAAE4199E284E8CAF800FD)\r\nComplete name                  : The.Hunger.Games.Mockingjay.Part.2.2015.3D.Half-SBS.DD.5.1-PHX.mkv\r\nFormat                         : Matroska\r\nFormat version                 : Version 2\r\nFile size                      : 12.6 GiB\r\nDuration                       : 2h 17mn\r\nOverall bit rate               : 13.1 Mbps\r\nMovie name                     : MOCKINGJAY_2_3D.Title645.Bluray3DRip\r\nEncoded date                   : UTC 2016-03-13 23:43:41\r\nWriting application            : DVDFab\r\nWriting library                : libebml v0.7.8 + libmatroska v0.8.1\r\n\r\nVideo\r\nID                             : 1\r\nFormat                         : AVC\r\nFormat/Info                    : Advanced Video Codec\r\nFormat profile                 :   \r\nFormat settings, CABAC         : Yes\r\nFormat settings, ReFrames      : 2 frames\r\nCodec ID                       : V_MPEG4/ISO/AVC\r\nDuration                       : 2h 17mn\r\nBit rate                       : 12.2 Mbps\r\nWidth                          : 1 920 pixels\r\nHeight                         : 1 080 pixels\r\nDisplay aspect ratio           : 16:9\r\nFrame rate mode                : Constant\r\nFrame rate                     : 23.976 (24000/1001) fps\r\nColor space                    : YUV\r\nChroma subsampling             : 4:2:0\r\nBit depth                      : 8 bits\r\nScan type                      : Progressive\r\nBits/(Pixel*Frame)             : 0.245\r\nStream size                    : 11.7 GiB (93%)\r\nWriting library                : x264 core\r\nDefault                        : Yes\r\nForced                         : No\r\nColor range                    : Limited\r\nColor primaries                : BT.709\r\nTransfer characteristics       : BT.709\r\nMatrix coefficients            : BT.709\r\n\r\nAudio\r\nID                             : 2\r\nFormat                         : AC-3\r\nFormat/Info                    : Audio Coding 3\r\nMode extension                 : CM (complete main)\r\nFormat settings, Endianness    : Big\r\nCodec ID                       : A_AC3\r\nDuration                       : 2h 17mn\r\nBit rate mode                  : Constant\r\nBit rate                       : 640 Kbps\r\nChannel(s)                     : 6 channels\r\nChannel positions              : Front: L C R, Side: L R, LFE\r\nSampling rate                  : 48.0 KHz\r\nFrame rate                     : 31.250 fps (1536 spf)\r\nCompression mode               : Lossy\r\nStream size                    : 631 MiB (5%)\r\nDefault                        : Yes\r\nForced                         : No\r\n\r\nMenu\r\n00:00:00.000                   : en:(01)00:00:00:000\r\n00:10:58.115                   : en:(02)00:10:58:115\r\n00:19:43.682                   : en:(03)00:19:43:682\r\n00:29:34.105                   : en:(04)00:29:34:105\r\n00:43:44.955                   : en:(05)00:43:44:955\r\n00:55:20.900                   : en:(06)00:55:20:900\r\n01:04:54.849                   : en:(07)01:04:54:849\r\n01:19:02.988                   : en:(08)01:19:02:988\r\n01:37:28.259                   : en:(09)01:37:28:259\r\n01:49:21.805                   : en:(10)01:49:21:805\r\n01:59:34.417                   : en:(11)01:59:34:417\r\n02:05:49.792                   : en:(12)02:05:49:792","torrent":{"xt":"urn:btih:276d14bd795220bd319286218b673aca02c64c86","amp;dn":"The.Hunger.Games.Mockingjay.Part.2.2015.3D.Half-SBS.DD.5.1-PHX","amp;tr":["udp%3A%2F%2Ftracker.leechers-paradise.org%3A6969","udp%3A%2F%2Fzer0day.ch%3A1337","udp%3A%2F%2Fopen.demonii.com%3A1337","udp%3A%2F%2Ftracker.coppersurfer.tk%3A6969","udp%3A%2F%2Fexodus.desync.com%3A6969"],"infoHash":"276d14bd795220bd319286218b673aca02c64c86","infoHashBuffer":{"type":"Buffer","data":[39,109,20,189,121,82,32,189,49,146,134,33,139,103,58,202,2,198,76,134]},"announce":[],"urlList":[]}}